<mxfile host="Electron" modified="2024-05-02T15:05:18.854Z" agent="Mozilla/5.0 (Windows NT 10.0; Win64; x64) AppleWebKit/537.36 (KHTML, like Gecko) draw.io/24.2.5 Chrome/120.0.6099.109 Electron/28.1.0 Safari/537.36" etag="cYuQtUeTEfR4hzSgl4L8" version="24.2.5" type="device">
  <diagram name="Page-1" id="lqWQIH8dFossH2WYCpR8">
    <mxGraphModel dx="2954" dy="1196" grid="1" gridSize="10" guides="1" tooltips="1" connect="1" arrows="1" fold="1" page="1" pageScale="1" pageWidth="1169" pageHeight="827" math="0" shadow="0">
      <root>
        <mxCell id="0" />
        <mxCell id="1" parent="0" />
        <mxCell id="6777pqxVijc68AN4m2_4-1" value="ROGUE LIKE DNA" style="text;html=1;align=center;verticalAlign=middle;whiteSpace=wrap;rounded=0;" parent="1" vertex="1">
          <mxGeometry x="90" y="80" width="60" height="30" as="geometry" />
        </mxCell>
        <mxCell id="6777pqxVijc68AN4m2_4-4" value="" style="shape=image;verticalLabelPosition=bottom;labelBackgroundColor=default;verticalAlign=top;aspect=fixed;imageAspect=0;image=data:image/png,iVBORw0KGgoAAAANSUhEUgAAAQAAAAEACAYAAABccqhmAAAACXBIWXMAAAsTAAALEwEAmpwYAAAE7mlUWHRYTUw6Y29tLmFkb2JlLnhtcAAAAAAAPD94cGFja2V0IGJlZ2luPSLvu78iIGlkPSJXNU0wTXBDZWhpSHpyZVN6TlRjemtjOWQiPz4gPHg6eG1wbWV0YSB4bWxuczp4PSJhZG9iZTpuczptZXRhLyIgeDp4bXB0az0iQWRvYmUgWE1QIENvcmUgOS4xLWMwMDIgNzkuZGJhM2RhMywgMjAyMy8xMi8xMy0wNTowNjo0OSAgICAgICAgIj4gPHJkZjpSREYgeG1sbnM6cmRmPSJodHRwOi8vd3d3LnczLm9yZy8xOTk5LzAyLzIyLXJkZi1zeW50YXgtbnMjIj4gPHJkZjpEZXNjcmlwdGlvbiByZGY6YWJvdXQ9IiIgeG1sbnM6eG1wPSJodHRwOi8vbnMuYWRvYmUuY29tL3hhcC8xLjAvIiB4bWxuczpkYz0iaHR0cDovL3B1cmwub3JnL2RjL2VsZW1lbnRzLzEuMS8iIHhtbG5zOnBob3Rvc2hvcD0iaHR0cDovL25zLmFkb2JlLmNvbS9waG90b3Nob3AvMS4wLyIgeG1sbnM6eG1wTU09Imh0dHA6Ly9ucy5hZG9iZS5jb20veGFwLzEuMC9tbS8iIHhtbG5zOnN0RXZ0PSJodHRwOi8vbnMuYWRvYmUuY29tL3hhcC8xLjAvc1R5cGUvUmVzb3VyY2VFdmVudCMiIHhtcDpDcmVhdG9yVG9vbD0iQWRvYmUgUGhvdG9zaG9wIDI1LjYgKFdpbmRvd3MpIiB4bXA6Q3JlYXRlRGF0ZT0iMjAyNC0wNC0yNFQxMzo1Njo1MiswMjowMCIgeG1wOk1vZGlmeURhdGU9IjIwMjQtMDQtMjRUMTQ6MDg6MDQrMDI6MDAiIHhtcDpNZXRhZGF0YURhdGU9IjIwMjQtMDQtMjRUMTQ6MDg6MDQrMDI6MDAiIGRjOmZvcm1hdD0iaW1hZ2UvcG5nIiBwaG90b3Nob3A6Q29sb3JNb2RlPSIzIiB4bXBNTTpJbnN0YW5jZUlEPSJ4bXAuaWlkOjYyZDgwODIyLTAzZTktODM0Ny1hYmU4LWRjZmMxMmQ3NDA4YyIgeG1wTU06RG9jdW1lbnRJRD0ieG1wLmRpZDo2MmQ4MDgyMi0wM2U5LTgzNDctYWJlOC1kY2ZjMTJkNzQwOGMiIHhtcE1NOk9yaWdpbmFsRG9jdW1lbnRJRD0ieG1wLmRpZDo2MmQ4MDgyMi0wM2U5LTgzNDctYWJlOC1kY2ZjMTJkNzQwOGMiPiA8eG1wTU06SGlzdG9yeT4gPHJkZjpTZXE+IDxyZGY6bGkgc3RFdnQ6YWN0aW9uPSJjcmVhdGVkIiBzdEV2dDppbnN0YW5jZUlEPSJ4bXAuaWlkOjYyZDgwODIyLTAzZTktODM0Ny1hYmU4LWRjZmMxMmQ3NDA4YyIgc3RFdnQ6d2hlbj0iMjAyNC0wNC0yNFQxMzo1Njo1MiswMjowMCIgc3RFdnQ6c29mdHdhcmVBZ2VudD0iQWRvYmUgUGhvdG9zaG9wIDI1LjYgKFdpbmRvd3MpIi8+IDwvcmRmOlNlcT4gPC94bXBNTTpIaXN0b3J5PiA8L3JkZjpEZXNjcmlwdGlvbj4gPC9yZGY6UkRGPiA8L3g6eG1wbWV0YT4gPD94cGFja2V0IGVuZD0iciI/PuFney0AAAP5SURBVHic7d1RiuMwEEDB1TL3v7L3BtGAopXtV/U7kGRCeAi6bY/ruv4ATX9PfwDgHAGAMAGAMAGAMAGAMAGAMAGAMAGAMAGAMAGAMAGAMAGAMAGAMAGAMAGAMAGAMAGAMAGAMAGAMAGAMAGAMAGAMAGAMAGAMAGAMAGAMAGAMAGAMAGAMAGAMAGAMAGAMAGAMAGAMAGAMAGAMAGAMAGAMAGAMAGAMAGAMAGAMAGAMAGAMAGAMAGAMAGAMAGAMAGAMAGAMAGAMAGAMAGAMAGAMAGAMAGAMAGAMAGAMAGAMAGAMAGAMAGAMAGAMAGAMAGAMAGAMAGAMAGAMAGAMAGAMAGAsJ/TH2CMsfoS1+wtVt8ATrmu2c97jRMAhAkAhAkAhAkAhAkAhAkAhAkAhB3fA/iFj4PQ2Zx0jFHfE1gdJL/9+0lzAoAwAYAwAYAwAYAwAYAwAYAwAYCwJ+wB8NnSnsRMYI9i7wX3c0e/PycACBMACBMACBMACBMACBMACBMACLMHwNtt3ZNYdXrPwgkAwgQAwgQAwgQAwgQAwgQAwgQAwuwB7Ld10Lx7jv2F5y6sevr9Bm7NCQDCBADCBADCBADCBADCBADCBADC7AGsu/X15rvt/v9OXy//dk4AECYAECYAECYAECYAECYAECYAEHaHPYCtc/QvXM8+mzN//Pvu6+VP7xmMsX0Mb86/kRMAhAkAhAkAhAkAhAkAhAkAhAkAhN1hD2Bpjv6LOf/S+3/B6us//YYC5vg35gQAYQIAYQIAYQIAYQIAYQIAYQIAYXfYA4Cdtu6ZTN/8/B7KR04AECYAECYAECYAECYAECYAECYAEPaEPYDV++6nr0dfvW//6ecO/Ae7n+tw69+fEwCECQCECQCECQCECQCECQCECQCEPWEPYObWc1Ye79W/LycACBMACBMACBMACBMACBMACBMACBMACBMACBMACBMACBMACBMACBMACBMACBMACBMACBMACBMACBMACBMACBMACBMACHvDcwHebvX59Uv3td/9+pzlBABhAgBhAgBhAgBhAgBhAgBhAgBh47pmY17grZwAIEwAIEwAIEwAIEwAIEwAIEwAIEwAIEwAIEwAIEwAIEwAIEwAIEwAIEwAIEwAIEwAIEwAIEwAIEwAIEwAIEwAIEwAIEwAIEwAIEwAIEwAIEwAIEwAIEwAIEwAIEwAIEwAIEwAIEwAIEwAIEwAIEwAIEwAIEwAIEwAIEwAIEwAIEwAIEwAIEwAIEwAIEwAIEwAIEwAIEwAIEwAIEwAIEwAIEwAIEwAIEwAIEwAIEwAIEwAIEwAIEwAIEwAIEwAIEwAIEwAIEwAIEwAIEwAIEwAIEwAIOwfjFxJIP5gC2AAAAAASUVORK5CYII=;" parent="1" vertex="1">
          <mxGeometry x="913" width="256" height="256" as="geometry" />
        </mxCell>
        <mxCell id="6777pqxVijc68AN4m2_4-5" value="" style="shape=image;verticalLabelPosition=bottom;labelBackgroundColor=default;verticalAlign=top;aspect=fixed;imageAspect=0;image=data:image/png,iVBORw0KGgoAAAANSUhEUgAAB4AAAACACAYAAADqBXRIAAAACXBIWXMAAAsTAAALEwEAmpwYAAAGlmlUWHRYTUw6Y29tLmFkb2JlLnhtcAAAAAAAPD94cGFja2V0IGJlZ2luPSLvu78iIGlkPSJXNU0wTXBDZWhpSHpyZVN6TlRjemtjOWQiPz4gPHg6eG1wbWV0YSB4bWxuczp4PSJhZG9iZTpuczptZXRhLyIgeDp4bXB0az0iQWRvYmUgWE1QIENvcmUgOS4xLWMwMDIgNzkuZGJhM2RhMywgMjAyMy8xMi8xMy0wNTowNjo0OSAgICAgICAgIj4gPHJkZjpSREYgeG1sbnM6cmRmPSJodHRwOi8vd3d3LnczLm9yZy8xOTk5LzAyLzIyLXJkZi1zeW50YXgtbnMjIj4gPHJkZjpEZXNjcmlwdGlvbiByZGY6YWJvdXQ9IiIgeG1sbnM6eG1wPSJodHRwOi8vbnMuYWRvYmUuY29tL3hhcC8xLjAvIiB4bWxuczpkYz0iaHR0cDovL3B1cmwub3JnL2RjL2VsZW1lbnRzLzEuMS8iIHhtbG5zOnBob3Rvc2hvcD0iaHR0cDovL25zLmFkb2JlLmNvbS9waG90b3Nob3AvMS4wLyIgeG1sbnM6eG1wTU09Imh0dHA6Ly9ucy5hZG9iZS5jb20veGFwLzEuMC9tbS8iIHhtbG5zOnN0RXZ0PSJodHRwOi8vbnMuYWRvYmUuY29tL3hhcC8xLjAvc1R5cGUvUmVzb3VyY2VFdmVudCMiIHhtcDpDcmVhdG9yVG9vbD0iQWRvYmUgUGhvdG9zaG9wIDI1LjYgKFdpbmRvd3MpIiB4bXA6Q3JlYXRlRGF0ZT0iMjAyMy0xMS0yM1QxMTo1ODoxMCswMTowMCIgeG1wOk1vZGlmeURhdGU9IjIwMjQtMDQtMjRUMTQ6MDg6MzIrMDI6MDAiIHhtcDpNZXRhZGF0YURhdGU9IjIwMjQtMDQtMjRUMTQ6MDg6MzIrMDI6MDAiIGRjOmZvcm1hdD0iaW1hZ2UvcG5nIiBwaG90b3Nob3A6Q29sb3JNb2RlPSIzIiB4bXBNTTpJbnN0YW5jZUlEPSJ4bXAuaWlkOmQ0M2FmMjM0LWE3ZGItODg0NC04ZTk3LTA0YjEwM2JkNmUzYyIgeG1wTU06RG9jdW1lbnRJRD0iYWRvYmU6ZG9jaWQ6cGhvdG9zaG9wOmNjNzJkOTAzLTBiYTEtMTk0OS04NTFiLWZhZmQ3ZmMyM2VhYyIgeG1wTU06T3JpZ2luYWxEb2N1bWVudElEPSJ4bXAuZGlkOjkxNjIzYTFkLWZiMjgtOWM0NS1hYTA5LTIxYTUyNWI0NGViYiI+IDx4bXBNTTpIaXN0b3J5PiA8cmRmOlNlcT4gPHJkZjpsaSBzdEV2dDphY3Rpb249ImNyZWF0ZWQiIHN0RXZ0Omluc3RhbmNlSUQ9InhtcC5paWQ6OTE2MjNhMWQtZmIyOC05YzQ1LWFhMDktMjFhNTI1YjQ0ZWJiIiBzdEV2dDp3aGVuPSIyMDIzLTExLTIzVDExOjU4OjEwKzAxOjAwIiBzdEV2dDpzb2Z0d2FyZUFnZW50PSJBZG9iZSBQaG90b3Nob3AgMjUuNiAoV2luZG93cykiLz4gPHJkZjpsaSBzdEV2dDphY3Rpb249InNhdmVkIiBzdEV2dDppbnN0YW5jZUlEPSJ4bXAuaWlkOmNiM2RlM2ViLTJiMmUtZGU0MS05ZmE1LWNjZTI2MWMyMWRiNiIgc3RFdnQ6d2hlbj0iMjAyNC0wNC0yM1QxMTo0ODowNiswMjowMCIgc3RFdnQ6c29mdHdhcmVBZ2VudD0iQWRvYmUgUGhvdG9zaG9wIDI1LjYgKFdpbmRvd3MpIiBzdEV2dDpjaGFuZ2VkPSIvIi8+IDxyZGY6bGkgc3RFdnQ6YWN0aW9uPSJzYXZlZCIgc3RFdnQ6aW5zdGFuY2VJRD0ieG1wLmlpZDpkNDNhZjIzNC1hN2RiLTg4NDQtOGU5Ny0wNGIxMDNiZDZlM2MiIHN0RXZ0OndoZW49IjIwMjQtMDQtMjRUMTQ6MDg6MzIrMDI6MDAiIHN0RXZ0OnNvZnR3YXJlQWdlbnQ9IkFkb2JlIFBob3Rvc2hvcCAyNS42IChXaW5kb3dzKSIgc3RFdnQ6Y2hhbmdlZD0iLyIvPiA8L3JkZjpTZXE+IDwveG1wTU06SGlzdG9yeT4gPC9yZGY6RGVzY3JpcHRpb24+IDwvcmRmOlJERj4gPC94OnhtcG1ldGE+IDw/eHBhY2tldCBlbmQ9InIiPz4xTkqlAAAH9klEQVR4nO3bu3HkOBQFUGBLMcgeBqQsOoM2ZY/ZGXQWCoi2osAY60ytsTXzyObn8hwfhYfCQwPSLfb2/mM0YDXje+571wAAAAAAAMA1/bN3AQAAAAAAAACsQwAMAAAAAAAAEEIADAAAAAAAABBCAAwAAAAAAAAQQgAMAAAAAAAAEEIADAAAAAAAABBCAAwAAAAAAAAQQgAMAAAAAAAAEEIADAAAAAAAABBCAAwAAAAAAAAQQgAMAAAAAAAAEEIADAAAAAAAABBCAAwAAAAAAAAQ4q088jmvWAYc0G3auwIAOJT+VRx4m8aqhbDMc+6VYeNj7UIA4CB+lq7GNj2aN86BzPdW28hP2wgAv+u9uxwPZIxReuP4AhgAAAAAAAAghAAYAAAAAAAAIIQAGAAAAAAAACCEABgAAAAAAAAghAAYAAAAAAAAIIQAGAAAAAAAACCEABgAAAAAAAAghAAYAAAAAAAAIIQAGAAAAAAAACCEABgAAAAAAAAghAAYAAAAAAAAIIQAGAAAAAAAACCEABgAAAAAAAAgxNvmM96m+tjnvO2cW8+3x5x7rHFr1TUSoX8VB96msWohr/Sce2XY+Fi7EJaI79Vin7amVw+l2m/u4mOp7uN3/RzzAj9r2zE92jnujdbafG+1RX6eZon5in3a2nl6tdynrenVA6n223xfuxKWKO/j54JzzGH03k/zozrG0HMXdpZe1acZqv02mn/GHUl1H30BDAAAAAAAABBCAAwAAAAAAAAQQgAMAAAAAAAAEEIADAAAAAAAABBCAAwAAAAAAAAQQgAMAAAAAAAAEEIADAAAAAAAABBCAAwAAAAAAAAQQgAMAAAAAAAAEEIADAAAAAAAABBCAAwAAAAAAAAQQgAMAAAAAAAAEEIADAAAAAAAABBCAAwAAAAAAAAQ4m3vAriY51wfe5vWq4PruE2jNG5Jr26tusbvua9cCUuk92p1fa3p1avb+v6vnqk93ilnOf+8xPRopd/V+b52Ja9TXuNnc28cRHUPWztPry5ao169tOmx7XzVM7V1na2d5/zzGr330u/qaB9rl/Iy5TWO4d44iOoetnaeXtWnVPT2tfmc1TN1plqrfAEMAAAAAAAAEEIADAAAAAAAABBCAAwAAAAAAAAQQgAMAAAAAAAAEEIADAAAAAAAABBCAAwAAAAAAAAQQgAMAAAAAAAAEEIADAAAAAAAABBCAAwAAAAAAAAQQgAMAAAAAAAAEEIADAAAAAAAABBCAAwAAAAAAAAQQgAMAAAAAAAAEOJt7wL+ym3auwKWsof/q/c+KuPGGD15viVzsr6t+2aPOfdYI+s7S9/sMadeZUtXOBveOBm8cdafj9e4Qt/oVc7AG2f9+XiNs/TNHnPq1WM5S69643AWvgAGAAAAAAAACCEABgAAAAAAAAghAAYAAAAAAAAIIQAGAAAAAAAACCEABgAAAAAAAAghAAYAAAAAAAAIIQAGAAAAAAAACCEABgAAAAAAAAghAAYAAAAAAAAIIQAGAAAAAAAACCEABgAAAAAAAAghAAYAAAAAAAAIIQAGAAAAAAAACPG2dwF/5TnXxt2mdeugrrqHrV1iH8cY3Xwc3R77qFepuELfXKJXl7wdtnSWOndwhbNxibN4AXqVs7hC31yhV+f73hX8mbPUuYcrnI0rnMUruELf6NUMevX8RvvYu4Q/dqZaq3wBDAAAAAAAABBCAAwAAAAAAAAQQgAMAAAAAAAAEEIADAAAAAAAABBCAAwAAAAAAAAQQgAMAAAAAAAAEEIADAAAAAAAABBCAAwAAAAAAAAQQgAMAAAAAAAAEEIADAAAAAAAABBCAAwAAAAAAAAQQgAMAAAAAAAAEEIADAAAAAAAABDibe8C+I/btHcFr5W+Po7nOffSuNs0Vq7kdapr5FjSe1WfZtijT59zbVz1zbH1fHvM6TxGmO+ttI/To53j3mj1NXIcS/bwLL2qTzPs8Zs632vjpkf2fAvndB4DjDFK+9h7P8W90Vp9jRzHkj08S6/q0wxb/6aO9lEZ9u+c7as0rjrn1vMtmrO4j74ABgAAAAAAAAghAAYAAAAAAAAIIQAGAAAAAAAACCEABgAAAAAAAAghAAYAAAAAAAAIIQAGAAAAAAAACCEABgAAAAAAAAghAAYAAAAAAAAIIQAGAAAAAAAACCEABgAAAAAAAAghAAYAAAAAAAAIIQAGAAAAAAAACCEABgAAAAAAAAghAAYAAAAAAAAI0dv7j1Ea+ZxXLgUO5jaVho3vua9cCQAcQv8qDrxNtfcmr/GsvVXGx9qFAMBB/Kz9GT89mjfOgcz3VtvIT9sIAL/rvbscD2SMUXrj+AIYAAAAAAAAIIQAGAAAAAAAACCEABgAAAAAAAAghAAYAAAAAAAAIIQAGAAAAAAAACCEABgAAAAAAAAghAAYAAAAAAAAIIQAGAAAAAAAACCEABgAAAAAAAAghAAYAAAAAAAAIIQAGAAAAAAAACCEABgAAAAAAAAghAAYAAAAAAAAIERv7z/G3kVAkvE9971rAAAAAAAA4Jp8AQwAAAAAAAAQQgAMAAAAAAAAEEIADAAAAAAAABBCAAwAAAAAAAAQQgAMAAAAAAAAEEIADAAAAAAAABBCAAwAAAAAAAAQQgAMAAAAAAAAEEIADAAAAAAAABBCAAwAAAAAAAAQQgAMAAAAAAAAEEIADAAAAAAAABBCAAwAAAAAAAAQ4hdOCqJsyQDyiwAAAABJRU5ErkJggg==;" parent="1" vertex="1">
          <mxGeometry x="309" y="238.66" width="860" height="57.34" as="geometry" />
        </mxCell>
        <mxCell id="6777pqxVijc68AN4m2_4-6" value="FEUILLE DE ROUTE&lt;div&gt;&lt;br&gt;&lt;/div&gt;&lt;div&gt;3 Niveau&lt;/div&gt;&lt;div&gt;&lt;br&gt;&lt;/div&gt;&lt;div&gt;ENEMY :&lt;/div&gt;&lt;div&gt;Melee x3&lt;/div&gt;&lt;div&gt;Shooter x3&lt;/div&gt;&lt;div&gt;Bomber x3&lt;/div&gt;&lt;div&gt;&lt;br&gt;&lt;/div&gt;&lt;div&gt;BOSS&lt;/div&gt;&lt;div&gt;INVOCATOR&lt;/div&gt;&lt;div&gt;MELEE BRUTAL&lt;/div&gt;&lt;div&gt;INVOCATOR SHOOTER MELEE&lt;/div&gt;&lt;div&gt;&lt;br&gt;&lt;/div&gt;&lt;div&gt;Enemy Boss Drop Items (Health, Permanent Money, Item / Bonus)&lt;/div&gt;&lt;div&gt;&lt;br&gt;&lt;/div&gt;&lt;div&gt;1 PLAYER&lt;/div&gt;&lt;div&gt;Attack / Charged Attack&lt;/div&gt;&lt;div&gt;Dodge / Hold Shield&lt;/div&gt;&lt;div&gt;Move&lt;/div&gt;&lt;div&gt;&lt;br&gt;&lt;/div&gt;&lt;div&gt;Hub&lt;/div&gt;&lt;div&gt;Shop / Place to Improve Life Damage Base Item Second Chance&lt;/div&gt;&lt;div&gt;&lt;br&gt;&lt;/div&gt;" style="text;html=1;align=left;verticalAlign=middle;whiteSpace=wrap;rounded=0;" parent="1" vertex="1">
          <mxGeometry x="80" y="397.34000000000003" width="400" height="410" as="geometry" />
        </mxCell>
        <mxCell id="6777pqxVijc68AN4m2_4-7" value="&lt;h2&gt;Mobile Friendly&lt;/h2&gt;" style="rounded=1;whiteSpace=wrap;html=1;fillColor=#008a00;fontColor=#ffffff;strokeColor=#005700;" parent="1" vertex="1">
          <mxGeometry x="960" y="397.34000000000003" width="120" height="60" as="geometry" />
        </mxCell>
        <mxCell id="AZg7I3DC48g_nCe4Q7ee-1" value="DRONE" style="rounded=0;whiteSpace=wrap;html=1;fillColor=#a20025;fontColor=#ffffff;strokeColor=#6F0000;" vertex="1" parent="1">
          <mxGeometry x="1240" y="40" width="120" height="60" as="geometry" />
        </mxCell>
        <mxCell id="AZg7I3DC48g_nCe4Q7ee-2" value="SEKURIBOT" style="rounded=0;whiteSpace=wrap;html=1;fillColor=#a20025;fontColor=#ffffff;strokeColor=#6F0000;" vertex="1" parent="1">
          <mxGeometry x="1400" y="40" width="120" height="60" as="geometry" />
        </mxCell>
        <mxCell id="AZg7I3DC48g_nCe4Q7ee-3" value="???" style="rounded=0;whiteSpace=wrap;html=1;fillColor=#a20025;fontColor=#ffffff;strokeColor=#6F0000;" vertex="1" parent="1">
          <mxGeometry x="1560" y="40" width="120" height="60" as="geometry" />
        </mxCell>
        <mxCell id="AZg7I3DC48g_nCe4Q7ee-4" value="MELEE" style="rounded=0;whiteSpace=wrap;html=1;fillColor=#a20025;fontColor=#ffffff;strokeColor=#6F0000;" vertex="1" parent="1">
          <mxGeometry x="1240" y="120" width="120" height="60" as="geometry" />
        </mxCell>
        <mxCell id="AZg7I3DC48g_nCe4Q7ee-5" value="DUMMY" style="rounded=0;whiteSpace=wrap;html=1;fillColor=#60a917;fontColor=#ffffff;strokeColor=#2D7600;" vertex="1" parent="1">
          <mxGeometry x="1710" y="40" width="120" height="60" as="geometry" />
        </mxCell>
        <mxCell id="AZg7I3DC48g_nCe4Q7ee-6" value="SHOOTER" style="rounded=0;whiteSpace=wrap;html=1;fillColor=#60a917;fontColor=#ffffff;strokeColor=#2D7600;" vertex="1" parent="1">
          <mxGeometry x="1240" y="203.5" width="120" height="60" as="geometry" />
        </mxCell>
        <mxCell id="AZg7I3DC48g_nCe4Q7ee-7" value="BOMBER" style="rounded=0;whiteSpace=wrap;html=1;fillColor=#a20025;fontColor=#ffffff;strokeColor=#6F0000;" vertex="1" parent="1">
          <mxGeometry x="1240" y="290" width="120" height="60" as="geometry" />
        </mxCell>
        <mxCell id="AZg7I3DC48g_nCe4Q7ee-8" value="MELEE" style="rounded=0;whiteSpace=wrap;html=1;fillColor=#a20025;fontColor=#ffffff;strokeColor=#6F0000;" vertex="1" parent="1">
          <mxGeometry x="1400" y="120" width="120" height="60" as="geometry" />
        </mxCell>
        <mxCell id="AZg7I3DC48g_nCe4Q7ee-9" value="SHOOTER" style="rounded=0;whiteSpace=wrap;html=1;fillColor=#a20025;fontColor=#ffffff;strokeColor=#6F0000;" vertex="1" parent="1">
          <mxGeometry x="1400" y="203.5" width="120" height="60" as="geometry" />
        </mxCell>
        <mxCell id="AZg7I3DC48g_nCe4Q7ee-10" value="BOMBER" style="rounded=0;whiteSpace=wrap;html=1;fillColor=#a20025;fontColor=#ffffff;strokeColor=#6F0000;" vertex="1" parent="1">
          <mxGeometry x="1400" y="290" width="120" height="60" as="geometry" />
        </mxCell>
        <mxCell id="AZg7I3DC48g_nCe4Q7ee-11" value="MELEE" style="rounded=0;whiteSpace=wrap;html=1;fillColor=#a20025;fontColor=#ffffff;strokeColor=#6F0000;" vertex="1" parent="1">
          <mxGeometry x="1560" y="120" width="120" height="60" as="geometry" />
        </mxCell>
        <mxCell id="AZg7I3DC48g_nCe4Q7ee-12" value="SHOOTER" style="rounded=0;whiteSpace=wrap;html=1;fillColor=#a20025;fontColor=#ffffff;strokeColor=#6F0000;" vertex="1" parent="1">
          <mxGeometry x="1560" y="203.5" width="120" height="60" as="geometry" />
        </mxCell>
        <mxCell id="AZg7I3DC48g_nCe4Q7ee-13" value="BOMBER" style="rounded=0;whiteSpace=wrap;html=1;fillColor=#a20025;fontColor=#ffffff;strokeColor=#6F0000;" vertex="1" parent="1">
          <mxGeometry x="1560" y="290" width="120" height="60" as="geometry" />
        </mxCell>
        <mxCell id="AZg7I3DC48g_nCe4Q7ee-14" value="INVOCATOR" style="rounded=1;whiteSpace=wrap;html=1;fillColor=#a20025;fontColor=#ffffff;strokeColor=#6F0000;" vertex="1" parent="1">
          <mxGeometry x="1860" y="40" width="120" height="60" as="geometry" />
        </mxCell>
        <mxCell id="AZg7I3DC48g_nCe4Q7ee-15" value="MELEE BRUTAL" style="rounded=1;whiteSpace=wrap;html=1;fillColor=#a20025;fontColor=#ffffff;strokeColor=#6F0000;" vertex="1" parent="1">
          <mxGeometry x="2020" y="40" width="120" height="60" as="geometry" />
        </mxCell>
        <mxCell id="AZg7I3DC48g_nCe4Q7ee-16" value="MIXED + SHOOTER" style="rounded=1;whiteSpace=wrap;html=1;fillColor=#a20025;fontColor=#ffffff;strokeColor=#6F0000;" vertex="1" parent="1">
          <mxGeometry x="2180" y="40" width="120" height="60" as="geometry" />
        </mxCell>
        <mxCell id="AZg7I3DC48g_nCe4Q7ee-17" value="XP SYSTEM" style="whiteSpace=wrap;html=1;aspect=fixed;fillColor=#a20025;fontColor=#ffffff;strokeColor=#6F0000;" vertex="1" parent="1">
          <mxGeometry x="1240" y="457.34" width="80" height="80" as="geometry" />
        </mxCell>
        <mxCell id="AZg7I3DC48g_nCe4Q7ee-18" value="MONEY SYSTEM" style="whiteSpace=wrap;html=1;aspect=fixed;fillColor=#a20025;fontColor=#ffffff;strokeColor=#6F0000;" vertex="1" parent="1">
          <mxGeometry x="1330" y="457.34" width="80" height="80" as="geometry" />
        </mxCell>
        <mxCell id="AZg7I3DC48g_nCe4Q7ee-22" style="edgeStyle=orthogonalEdgeStyle;rounded=0;orthogonalLoop=1;jettySize=auto;html=1;exitX=1;exitY=0.25;exitDx=0;exitDy=0;entryX=0;entryY=0.5;entryDx=0;entryDy=0;" edge="1" parent="1" source="AZg7I3DC48g_nCe4Q7ee-19" target="AZg7I3DC48g_nCe4Q7ee-20">
          <mxGeometry relative="1" as="geometry" />
        </mxCell>
        <mxCell id="AZg7I3DC48g_nCe4Q7ee-23" style="edgeStyle=orthogonalEdgeStyle;rounded=0;orthogonalLoop=1;jettySize=auto;html=1;exitX=1;exitY=0.75;exitDx=0;exitDy=0;" edge="1" parent="1" source="AZg7I3DC48g_nCe4Q7ee-19" target="AZg7I3DC48g_nCe4Q7ee-21">
          <mxGeometry relative="1" as="geometry" />
        </mxCell>
        <mxCell id="AZg7I3DC48g_nCe4Q7ee-19" value="TUTORIALS" style="shape=parallelogram;perimeter=parallelogramPerimeter;whiteSpace=wrap;html=1;fixedSize=1;fillColor=#a20025;fontColor=#ffffff;strokeColor=#6F0000;" vertex="1" parent="1">
          <mxGeometry x="1350" y="700" width="120" height="60" as="geometry" />
        </mxCell>
        <mxCell id="AZg7I3DC48g_nCe4Q7ee-20" value="PARRY" style="text;html=1;align=center;verticalAlign=middle;whiteSpace=wrap;rounded=0;fillColor=#a20025;fontColor=#ffffff;strokeColor=#6F0000;" vertex="1" parent="1">
          <mxGeometry x="1510" y="700" width="60" height="30" as="geometry" />
        </mxCell>
        <mxCell id="AZg7I3DC48g_nCe4Q7ee-21" value="ATTACK COMBO" style="text;html=1;align=center;verticalAlign=middle;whiteSpace=wrap;rounded=0;fillColor=#a20025;fontColor=#ffffff;strokeColor=#6F0000;" vertex="1" parent="1">
          <mxGeometry x="1510" y="740" width="130" height="30" as="geometry" />
        </mxCell>
        <mxCell id="AZg7I3DC48g_nCe4Q7ee-26" style="edgeStyle=orthogonalEdgeStyle;rounded=0;orthogonalLoop=1;jettySize=auto;html=1;exitX=1;exitY=0.25;exitDx=0;exitDy=0;entryX=0;entryY=0.5;entryDx=0;entryDy=0;" edge="1" parent="1" source="AZg7I3DC48g_nCe4Q7ee-24" target="AZg7I3DC48g_nCe4Q7ee-25">
          <mxGeometry relative="1" as="geometry" />
        </mxCell>
        <mxCell id="AZg7I3DC48g_nCe4Q7ee-30" style="edgeStyle=orthogonalEdgeStyle;rounded=0;orthogonalLoop=1;jettySize=auto;html=1;exitX=1;exitY=0.5;exitDx=0;exitDy=0;entryX=0;entryY=0.5;entryDx=0;entryDy=0;" edge="1" parent="1" source="AZg7I3DC48g_nCe4Q7ee-24" target="AZg7I3DC48g_nCe4Q7ee-29">
          <mxGeometry relative="1" as="geometry" />
        </mxCell>
        <mxCell id="AZg7I3DC48g_nCe4Q7ee-24" value="BONUS&lt;div&gt;SYSTEM&lt;/div&gt;" style="whiteSpace=wrap;html=1;aspect=fixed;fillColor=#a20025;fontColor=#ffffff;strokeColor=#6F0000;" vertex="1" parent="1">
          <mxGeometry x="1520" y="457.34" width="80" height="80" as="geometry" />
        </mxCell>
        <mxCell id="AZg7I3DC48g_nCe4Q7ee-28" style="edgeStyle=orthogonalEdgeStyle;rounded=0;orthogonalLoop=1;jettySize=auto;html=1;exitX=1;exitY=0.5;exitDx=0;exitDy=0;entryX=0;entryY=0.25;entryDx=0;entryDy=0;" edge="1" parent="1" source="AZg7I3DC48g_nCe4Q7ee-25" target="AZg7I3DC48g_nCe4Q7ee-27">
          <mxGeometry relative="1" as="geometry" />
        </mxCell>
        <mxCell id="AZg7I3DC48g_nCe4Q7ee-25" value="DRONE / FRIEND" style="text;html=1;align=center;verticalAlign=middle;whiteSpace=wrap;rounded=0;fillColor=#a20025;fontColor=#ffffff;strokeColor=#6F0000;" vertex="1" parent="1">
          <mxGeometry x="1640" y="470" width="60" height="30" as="geometry" />
        </mxCell>
        <mxCell id="AZg7I3DC48g_nCe4Q7ee-27" value="SHIELD&lt;div&gt;SHOOTER&lt;/div&gt;&lt;div&gt;HEAVY ATTACK&lt;/div&gt;" style="text;html=1;align=center;verticalAlign=middle;whiteSpace=wrap;rounded=0;" vertex="1" parent="1">
          <mxGeometry x="1740" y="457.34" width="120" height="60" as="geometry" />
        </mxCell>
        <mxCell id="AZg7I3DC48g_nCe4Q7ee-29" value="REFUS DE MORT" style="text;html=1;align=center;verticalAlign=middle;whiteSpace=wrap;rounded=0;fillColor=#a20025;fontColor=#ffffff;strokeColor=#6F0000;" vertex="1" parent="1">
          <mxGeometry x="1640" y="530" width="60" height="30" as="geometry" />
        </mxCell>
        <mxCell id="AZg7I3DC48g_nCe4Q7ee-31" value="ABILITY TREE LIKE MINI SHOOT ADVENTURE&lt;div&gt;+ - button&lt;/div&gt;" style="text;html=1;align=center;verticalAlign=middle;whiteSpace=wrap;rounded=0;" vertex="1" parent="1">
          <mxGeometry x="1920" y="464.68000000000006" width="130" height="72.66" as="geometry" />
        </mxCell>
        <mxCell id="AZg7I3DC48g_nCe4Q7ee-33" value="CHOICE BONUS" style="text;html=1;align=center;verticalAlign=middle;whiteSpace=wrap;rounded=0;" vertex="1" parent="1">
          <mxGeometry x="2110" y="464.68000000000006" width="130" height="72.66" as="geometry" />
        </mxCell>
      </root>
    </mxGraphModel>
  </diagram>
</mxfile>
